<svg xmlns="http://www.w3.org/2000/svg" viewBox="0 0 1200 630" role="img" aria-labelledby="title desc">
  <title id="title">The Fantasy Wrestling App</title>
  <desc id="desc">NCAA D1 fantasy wrestling landing page preview</desc>
  <defs>
    <linearGradient id="bg" x1="0" x2="1" y1="0" y2="1">
      <stop offset="0%" stop-color="#07111f" />
      <stop offset="45%" stop-color="#03070d" />
      <stop offset="100%" stop-color="#020408" />
    </linearGradient>
    <radialGradient id="glow" cx="0.2" cy="0.1" r="0.8">
      <stop offset="0%" stop-color="#4ca3ff" stop-opacity=".45" />
      <stop offset="100%" stop-color="#4ca3ff" stop-opacity="0" />
    </radialGradient>
    <radialGradient id="blue" cx="50%" cy="30%" r="70%">
      <stop offset="0%" stop-color="#9de7ff" />
      <stop offset="35%" stop-color="#4ca3ff" />
      <stop offset="100%" stop-color="#0c2f76" />
    </radialGradient>
  </defs>
  <rect width="1200" height="630" fill="url(#bg)" />
  <rect width="1200" height="630" fill="url(#glow)" />
  <g opacity=".18">
    <path d="M0 110h1200M0 210h1200M0 310h1200M0 410h1200M0 510h1200" stroke="#ffffff" />
    <path d="M140 0v630M280 0v630M420 0v630M560 0v630M700 0v630M840 0v630M980 0v630M1120 0v630" stroke="#ffffff" />
  </g>
  <g transform="translate(120 118)">
    <rect width="160" height="160" rx="34" fill="rgba(255,255,255,.06)" stroke="rgba(255,255,255,.12)" />
    <ellipse cx="80" cy="114" rx="48" ry="14" fill="#08162c" stroke="#8ad8ff" stroke-opacity=".75" stroke-width="4" />
    <circle cx="80" cy="50" r="14" fill="url(#blue)" />
    <circle cx="105" cy="72" r="11" fill="url(#blue)" />
    <path d="M55 67c11 5 13 25 30 31" fill="none" stroke="#8ad8ff" stroke-width="9" stroke-linecap="round" />
    <path d="M115 67c-11 5-13 23-27 31" fill="none" stroke="#4ca3ff" stroke-width="9" stroke-linecap="round" />
  </g>
  <text x="320" y="190" fill="#8ad8ff" font-family="Arial, sans-serif" font-size="28" font-weight="700" letter-spacing="6">
    NCAA DIVISION I FANTASY SPORTS
  </text>
  <text x="320" y="300" fill="#f3f7fb" font-family="Arial Black, Arial, sans-serif" font-size="84" font-weight="900">
    THE FANTASY
  </text>
  <text x="320" y="390" fill="#f3f7fb" font-family="Arial Black, Arial, sans-serif" font-size="84" font-weight="900">
    WRESTLING APP
  </text>
  <text x="320" y="470" fill="#a9bad1" font-family="Arial, sans-serif" font-size="34">
    Draft. Manage. Compete. Built for NCAA D1 wrestling fans.
  </text>
  <rect x="320" y="520" width="320" height="56" rx="28" fill="#8ad8ff" />
  <text x="380" y="557" fill="#04101d" font-family="Arial, sans-serif" font-size="28" font-weight="700">
    Download on the App Store
  </text>
</svg>
